<svg xmlns="http://www.w3.org/2000/svg" width="100" version="1.0" viewBox="0 0 371.1 158.2" fill-rule="evenodd"><path d="M0 2h144v17.6H89.5v81.9H54V19.6H0V2zm248.9 71c18.3-8.5 66.9-38.8 55.4-62.7C295.8-7.5 245.2-.5 200.6 18c-20.2 8.5-91.8 44.9-80.9 73.1 7.5 19.2 51.9 12.2 67.8 6-20.9.5-30-3.9-34.4-14.1-10.9-25.4 31.6-54 51.8-62 36.2-14.1 58.8-10.2 67.2 3.4 9.3 18.8-9.3 37.8-23.2 48.6zm86.7-71h35.5v99.5h-35.5V2z" fill="#333"/><path d="M146.7 146.1c2.7 0 5-.8 7-2.5s3.5-4 4.4-7l2-6.5c1-3 1-5.3.1-7-1-1.6-2.8-2.4-5.4-2.4-2.7 0-5 .8-7 2.4-2 1.7-3.4 4-4.4 7l-2 6.5c-1 3-1 5.3-.1 7 1 1.7 2.8 2.5 5.4 2.5zM185.6 87c21.9-3.3 59.3-12.3 56.2-2.4-1.5 4.4-8 10.1-21.5 22.9-11 10.4-29.2 38.4-39.3 50.7.9-16.6 2.1-43.7-11.2-50.5 12.2 1.3 15.9 19.9 17 34 6.2-9.4 21.9-31.3 21.8-40.7-.1-7.4-7.6-13.5-23-14zm-81.8 11.4h7.6l-14.9 47.1h27.3l-2.3 7.3H86.6l17.2-54.4zm191 55c-2.3 0-4.4-.3-6.2-.7-1.9-.5-3.6-1.1-5-2-1.5-.9-2.7-2.1-3.8-3.4l6.3-5.6c1.6 1.6 3.3 2.8 5.1 3.6 1.8.8 3.8 1.2 5.8 1.2 3 0 5.4-.5 7.2-1.4 1.8-.9 3-2.3 3.6-4.2.4-1.2.3-2.2-.4-2.8-.6-.6-1.5-1-2.6-1.3-1.2-.2-2.8-.4-5-.5h-.6c-.3-.1-.4-.1-.6-.1h-.3c-.1 0-.2-.1-.3-.1-2.5-.1-4.5-.5-6.1-1-1.5-.6-2.7-1.6-3.4-3.1-.7-1.4-.6-3.5.3-6.3.8-2.7 2.1-5 3.8-6.8 1.7-1.8 3.8-3.2 6.3-4.1 2.5-.9 5.5-1.4 8.8-1.4 2 0 3.9.2 5.6.6 1.7.3 3.3.9 4.7 1.6 1.5.8 2.8 1.7 4 2.8l-6.4 5.6c-1.5-1.3-3.2-2.2-4.8-2.8-1.7-.6-3.5-.9-5.3-.9-2.6 0-4.6.4-6.2 1.3-1.6.9-2.7 2.2-3.2 4-.4 1-.2 1.8.3 2.3.6.6 1.4.9 2.5 1.1 1.1.1 2.6.3 4.6.4.2 0 .3.1.5.1h.9c2.7.2 4.9.6 6.6 1.1 1.8.6 3 1.7 3.8 3.3.8 1.6.7 3.9-.3 7-.9 2.8-2.2 5.1-4 6.9-1.7 1.9-4 3.2-6.7 4.2-2.7.9-5.8 1.4-9.5 1.4zm-15.5-30.2c-.4-.9-1.1-1.5-2-1.9-.9-.4-2-.6-3.3-.6-2.4 0-4.5.6-6.3 2-1.7 1.3-3 3.2-3.7 5.5l-7.8 24.6h-7.6l12.2-38.8h7.7l-1.7 5.4c1.5-1.7 3.3-3 5.1-4.1 2.3-1.2 4.6-1.9 6.9-1.9 1.8 0 3.3.3 4.5.8 1.3.5 2.3 1.2 3.1 2.2l-7.1 6.8zm-56.1 30.2c-3.6 0-6.4-.7-8.5-2.1-2.2-1.3-3.5-3.3-4-5.9-.5-2.6-.2-5.7 1-9.4l1.4-4.4c1.2-3.9 2.9-7.1 5-9.9 2.2-2.7 4.7-4.7 7.6-6.2 2.9-1.4 6-2.1 9.5-2.1 3.2 0 5.7.8 7.5 2.4 1.8 1.7 2.8 4 3 7.1.3 3-.3 6.7-1.6 11l-.8 2.6h-26.2l1.9-6.2h18.9c.8-3.2.8-5.6-.1-7.4-.8-1.7-2.4-2.6-4.8-2.6-2.9 0-5.4.9-7.6 2.8-2.2 1.9-3.8 4.6-4.9 8.1l-1.6 4.9c-1 3.2-.9 5.7.2 7.4 1.2 1.7 3.3 2.6 6.4 2.6 1.6 0 3.2-.3 4.9-.9 1.7-.7 3.4-1.5 4.9-2.7l3.4 5.1c-2.5 1.8-5.1 3.2-7.8 4.2s-5.3 1.6-7.7 1.6zm-78.8 0c-3.3 0-6-.7-8-2s-3.2-3.3-3.6-5.8c-.5-2.5-.2-5.6 1-9.1l2-6.4c1.1-3.5 2.7-6.5 4.7-9s4.5-4.4 7.3-5.7c2.8-1.3 5.9-2 9.3-2 3.3 0 6 .7 8 2s3.2 3.2 3.6 5.7c.5 2.5.2 5.5-.9 9l-2.1 6.5c-1.1 3.5-2.7 6.5-4.7 9-2.1 2.5-4.5 4.5-7.3 5.8-2.8 1.3-5.9 2-9.3 2z" fill="red" fill-rule="nonzero"/></svg>